<?xml version="1.0" encoding="UTF-8" standalone="no"?>
<svg
   xmlns:dc="http://purl.org/dc/elements/1.1/"
   xmlns:cc="http://creativecommons.org/ns#"
   xmlns:rdf="http://www.w3.org/1999/02/22-rdf-syntax-ns#"
   xmlns:svg="http://www.w3.org/2000/svg"
   xmlns="http://www.w3.org/2000/svg"
   xmlns:sodipodi="http://sodipodi.sourceforge.net/DTD/sodipodi-0.dtd"
   xmlns:inkscape="http://www.inkscape.org/namespaces/inkscape"
   version="1.1"
   x="0px"
   y="0px"
   viewBox="0 0 40.006756 63.301476"
   enable-background="new 0 0 100 100"
   xml:space="preserve"
   id="svg2"
   inkscape:version="0.91 r13725"
   sodipodi:docname="noun_460574_cc.svg"
   width="40.006756"
   height="63.301476"><metadata
     id="metadata24"><rdf:RDF><cc:Work
         rdf:about=""><dc:format>image/svg+xml</dc:format><dc:type
           rdf:resource="http://purl.org/dc/dcmitype/StillImage" /><dc:title></dc:title></cc:Work></rdf:RDF></metadata><defs
     id="defs22" /><sodipodi:namedview
     pagecolor="#ffffff"
     bordercolor="#666666"
     borderopacity="1"
     objecttolerance="10"
     gridtolerance="10"
     guidetolerance="10"
     inkscape:pageopacity="0"
     inkscape:pageshadow="2"
     inkscape:window-width="1920"
     inkscape:window-height="1058"
     id="namedview20"
     showgrid="false"
     fit-margin-top="5"
     fit-margin-left="5"
     fit-margin-right="5"
     fit-margin-bottom="5"
     inkscape:zoom="3.776"
     inkscape:cx="7.0464126"
     inkscape:cy="-3.9484196"
     inkscape:window-x="1366"
     inkscape:window-y="0"
     inkscape:window-maximized="1"
     inkscape:current-layer="svg2" /><g
     id="g4"
     transform="translate(-29.992904,-19.131623)"><g
       id="g6"><path
         d="m 64.99951,49.15527 c -0.0062,-0.28455 -0.12891,-5.39764 -0.59192,-9.21698 -0.6449,-6.54224 -0.79309,-8.04224 -0.83484,-8.41681 l 0.0049,-4.9e-4 C 63.50781,30.85107 62.89452,30.3037 61.96679,29.54443 61.84814,29.44726 61.74755,29.36621 61.68554,29.30957 61.03368,28.7168 60.34863,28.16064 59.6499,27.65625 c -1.53027,-1.10352 -3.12891,-1.96582 -4.75146,-2.5625 -3.73193,-1.37256 -7.56006,-1.27344 -10.78223,0.27734 -2.78174,1.33838 -5.35498,3.26514 -7.44141,5.57129 -0.14355,0.15869 -0.23242,0.35986 -0.25342,0.57275 l -0.8291,8.41193 c -0.46289,3.81921 -0.58557,8.93152 -0.5918,9.216 -7.9e-4,0.03497 0.0093,0.06775 0.01215,0.10217 -0.04242,1.05975 -0.01544,2.13654 0.07147,3.21521 0.1084,1.65204 0.78217,10.34003 3.29431,16.67725 0.77881,1.96387 2.08057,4.73828 4.3833,6.15088 2.33594,1.43262 4.93262,2.14453 7.45459,2.14453 2.76367,0 5.43799,-0.85498 7.58008,-2.55322 3.27686,-2.59766 4.55859,-7.17871 5.50244,-11.26904 0.88037,-3.8125 1.43213,-7.65869 1.64014,-11.43213 0.0017,-0.03125 -0.0092,-0.05981 -0.01031,-0.09058 0.05133,-0.92792 0.07202,-1.83691 0.04498,-2.71472 0.01435,-0.07141 0.02759,-0.14343 0.02588,-0.21814 z m -11.39209,10.6377 c -1.15039,0.1875 -2.33643,0.25 -3.40527,0.25 -2.06299,0 -3.69141,-0.23242 -3.79346,-0.24707 -0.5459,-0.08008 -0.92432,-0.5874 -0.84473,-1.13379 0.07959,-0.54639 0.58301,-0.92578 1.1333,-0.8457 0.03418,0.0054 3.52832,0.50146 6.58887,0.0029 0.54492,-0.0918 1.05908,0.28125 1.14746,0.82617 0.08887,0.54492 -0.28125,1.05908 -0.82617,1.14746 z M 37.92523,36.64764 38.04376,35.44519 38.3789,32.04394 c 1.87402,-2.00977 4.15137,-3.68994 6.60449,-4.87109 2.72998,-1.31348 6.00537,-1.38525 9.22461,-0.20215 1.45215,0.53418 2.88916,1.31055 4.27197,2.30762 0.6377,0.46045 1.26367,0.96875 1.85986,1.51074 0.07959,0.07227 0.20801,0.17822 0.36035,0.30322 0.20459,0.16699 0.71143,0.58203 0.90527,0.80664 0.04791,0.48639 0.19061,1.93359 0.35077,3.55847 0.03882,0.39423 0.07867,0.79846 0.11847,1.20245 0.06036,0.6123 0.12054,1.22308 0.17676,1.79327 -0.03387,-0.03162 -0.07196,-0.06476 -0.10663,-0.09668 -0.53723,-0.495 -1.1673,-1.02374 -1.8891,-1.54736 C 60.14464,36.7285 60.02879,36.64873 59.9135,36.56865 58.76048,35.76787 57.39977,34.99779 55.83647,34.41167 55.50371,34.28691 55.15928,34.17357 54.80864,34.06694 53.39848,33.63792 51.8485,33.36388 50.16161,33.34764 50.10889,33.33887 50.05518,33.33447 50,33.33447 c -1.74878,0 -3.35376,0.27588 -4.80853,0.71838 -0.35144,0.10687 -0.69446,0.22272 -1.02802,0.34784 -1.20618,0.45239 -2.29138,1.01428 -3.25531,1.61517 -0.40906,0.25494 -0.79742,0.51581 -1.16113,0.77954 -0.72278,0.52411 -1.35406,1.05341 -1.89185,1.54883 -0.03467,0.03192 -0.07275,0.06506 -0.10663,0.09668 l 0.1767,-1.79327 z m -0.84186,11.706 c 0.03717,-0.46051 0.08746,-0.91473 0.15125,-1.36334 0.4303,-3.02631 1.45483,-5.74976 3.06226,-7.64508 0.48816,-0.57556 1.03876,-1.09039 1.61938,-1.56775 0.33167,-0.20905 0.67969,-0.41071 1.04346,-0.60614 0.33356,-0.1792 0.67993,-0.34888 1.03967,-0.51074 0.33374,-0.15015 0.67767,-0.29022 1.03339,-0.42078 1.43811,-0.52765 3.04395,-0.88556 4.81586,-0.90436 0.04932,0.0073 0.1001,0.01123 0.15137,0.01123 1.83093,0 3.48853,0.36145 4.96716,0.90393 0.35602,0.13055 0.69934,0.27155 1.03339,0.42181 0.3598,0.16187 0.70612,0.33185 1.03973,0.51111 0.72235,0.38812 1.38281,0.80542 1.97662,1.2326 2.33942,2.39246 3.37836,5.58496 3.76984,8.60236 0.05914,0.45612 0.10419,0.90759 0.13617,1.35211 0.03168,0.44049 0.05182,0.87323 0.06128,1.29565 0.01691,0.75433 -0.0011,1.46692 -0.03503,2.1347 -2.04126,3.10406 -8.39044,3.61646 -11.10248,3.68732 -0.86182,-0.0293 -1.50439,-0.01758 -1.7666,-0.0078 l -0.02832,0.0054 -0.13477,-0.0054 c -0.25488,-0.0088 -0.91162,-0.02295 -1.73193,0.0088 -2.69263,-0.06891 -9.07147,-0.5733 -11.12433,-3.68195 -0.04327,-0.72144 -0.06415,-1.44141 -0.04572,-2.15265 0.01135,-0.43755 0.03363,-0.87096 0.06835,-1.30101 z"
         id="path8"
         inkscape:connector-curvature="0" /><circle
         cx="43.28363"
         cy="47.94659"
         r="1.4999599"
         id="circle10" /><circle
         cx="56.53912"
         cy="47.94659"
         r="1.4999599"
         id="circle12" /><path
         d="m 49.29834,53.99951 3.36621,0 c 0.55225,0 1,-0.44775 1,-1 0,-0.55225 -0.44775,-1 -1,-1 l -2.36621,0 0,-4.5415 c 0,-0.55225 -0.44775,-1 -1,-1 -0.55225,0 -1,0.44775 -1,1 l 0,5.5415 c 0,0.55225 0.44775,1 1,1 z"
         id="path14"
         inkscape:connector-curvature="0" /></g></g></svg>