<?xml version="1.0" encoding="UTF-8" standalone="no"?>
<svg
   xmlns:dc="http://purl.org/dc/elements/1.1/"
   xmlns:cc="http://creativecommons.org/ns#"
   xmlns:rdf="http://www.w3.org/1999/02/22-rdf-syntax-ns#"
   xmlns:svg="http://www.w3.org/2000/svg"
   xmlns="http://www.w3.org/2000/svg"
   xmlns:sodipodi="http://sodipodi.sourceforge.net/DTD/sodipodi-0.dtd"
   xmlns:inkscape="http://www.inkscape.org/namespaces/inkscape"
   version="1.1"
   x="0px"
   y="0px"
   viewBox="0 0 44.960667 64.485359"
   enable-background="new 0 0 100 100"
   xml:space="preserve"
   id="svg4250"
   inkscape:version="0.91 r13725"
   sodipodi:docname="noun_460581_cc.svg"
   width="44.960667"
   height="64.485359"><metadata
     id="metadata4292"><rdf:RDF><cc:Work
         rdf:about=""><dc:format>image/svg+xml</dc:format><dc:type
           rdf:resource="http://purl.org/dc/dcmitype/StillImage" /><dc:title></dc:title></cc:Work></rdf:RDF></metadata><defs
     id="defs4290" /><sodipodi:namedview
     pagecolor="#ffffff"
     bordercolor="#666666"
     borderopacity="1"
     objecttolerance="10"
     gridtolerance="10"
     guidetolerance="10"
     inkscape:pageopacity="0"
     inkscape:pageshadow="2"
     inkscape:window-width="1920"
     inkscape:window-height="1058"
     id="namedview4288"
     showgrid="false"
     fit-margin-top="5"
     fit-margin-right="5"
     fit-margin-bottom="5"
     fit-margin-left="5"
     inkscape:zoom="1.888"
     inkscape:cx="13.503143"
     inkscape:cy="19.81248"
     inkscape:window-x="1366"
     inkscape:window-y="0"
     inkscape:window-maximized="1"
     inkscape:current-layer="svg4250" /><g
     id="g4252"
     transform="translate(-27.22779,-17.827124)"><g
       id="g4254"><circle
         cx="43.119019"
         cy="48.17572"
         r="1.4999599"
         id="circle4256" /><circle
         cx="56.374481"
         cy="48.17572"
         r="1.4999599"
         id="circle4258" /><path
         d="m 52.75,52.88721 -2.36621,0 0,-5.2002 c 0,-0.55225 -0.44775,-1 -1,-1 -0.55225,0 -1,0.44775 -1,1 l 0,6.2002 c 0,0.55225 0.44775,1 1,1 l 3.36621,0 c 0.55225,0 1,-0.44775 1,-1 0,-0.55225 -0.44775,-1 -1,-1 z"
         id="path4260"
         inkscape:connector-curvature="0" /><path
         d="m 53.74414,58.04883 c -3.05859,0.49756 -6.55371,0.0024 -6.58838,-0.0029 -0.54932,-0.08057 -1.0542,0.29932 -1.1333,0.8457 -0.07959,0.54639 0.29883,1.05371 0.84473,1.13379 0.10205,0.01465 1.73047,0.24707 3.79346,0.24707 1.06885,0 2.25439,-0.0625 3.40479,-0.25 0.54541,-0.08838 0.91504,-0.60254 0.82617,-1.14746 -0.08839,-0.54492 -0.60401,-0.91992 -1.14747,-0.82617 z"
         id="path4262"
         inkscape:connector-curvature="0" /><path
         d="M 67.15332,76.05029 C 66.42133,73.36634 66.17096,70.5825 65.95242,67.81839 65.58586,63.18605 65.25787,58.55 65.02081,53.90918 c -0.0437,-0.85626 -0.08539,-1.71264 -0.12451,-2.56914 -0.06613,-1.44772 -0.21339,-2.62351 -0.81421,-3.98238 -0.19031,-0.43042 -0.40582,-0.86139 -0.64081,-1.29254 -0.07166,-0.13141 -0.1322,-0.26257 -0.20801,-0.3941 -0.42194,-0.73212 -0.92426,-1.4671 -1.47705,-2.20441 -1.2572,-1.677 -2.8349,-3.37018 -4.78699,-5.09991 -0.49036,-0.43427 -1.03735,-0.83789 -1.60486,-1.23798 l -0.48755,0.21936 -1.14386,0.51477 -1.1554,0.5199 c 2.99823,1.52826 7.6424,4.81439 10.23071,11.24121 l -0.06024,2.97418 c -0.04028,0.60455 -0.09247,1.16388 -0.15186,1.64404 -0.35938,2.89893 -1.5415,8.23535 -5.42334,11.40186 -0.37616,0.30664 -0.78558,0.58234 -1.21582,0.83411 -1.49158,0.87286 -3.27618,1.40991 -5.1665,1.52966 -2.38574,0.15332 -4.73828,-0.36182 -6.62305,-1.44727 -0.25342,-0.14594 -0.48999,-0.32776 -0.73334,-0.4953 -3.22083,-2.21741 -5.55237,-6.27008 -6.4317,-11.32062 -0.17053,-0.97906 -0.26886,-1.95374 -0.31537,-2.91791 -0.0163,-0.3371 -0.02802,-0.6745 -0.03217,-1.01196 -0.0099,-0.79675 0.36475,-1.53937 0.69482,-2.24298 0.98931,-2.10897 2.44101,-3.9709 4.11523,-5.57983 0.91876,-0.88293 1.90643,-1.69312 2.94006,-2.43781 0.88605,-0.63831 1.80634,-1.22894 2.75305,-1.77307 0.69391,-0.39886 1.40472,-0.75958 2.12079,-1.11615 0.68359,-0.34045 1.39972,-0.62097 2.09625,-0.93439 l 1.24908,-0.56213 0.81476,-0.36664 C 53.2281,35.65563 53.02077,35.50481 52.81294,35.35436 52.26509,34.95781 51.73677,34.53869 51.23903,34.08861 51.191,34.04509 51.14241,34.00218 51.09505,33.95799 c -0.10083,0.02924 -0.19958,0.06085 -0.29938,0.09131 -1.07941,0.32941 -2.09998,0.73047 -3.06274,1.19 -4.51233,2.15381 -7.76562,5.55194 -9.93184,8.52517 -1.15366,1.58354 -2.31808,3.3207 -3.06371,5.14149 -0.34838,0.85074 -0.24443,1.90114 -0.27916,2.80128 -0.27239,7.05859 -0.50217,14.15311 -1.59708,21.14275 -0.07291,0.46544 -0.15163,0.92992 -0.23572,1.39347 -0.15348,0.84694 -1.07699,3.06902 0.56203,3.06902 l 7.93165,0 17.13818,0 7.93115,0 c 0.31152,0 0.60547,-0.14502 0.79443,-0.39258 0.18896,-0.24756 0.25249,-0.56883 0.17046,-0.86961 z"
         id="path4264"
         inkscape:connector-curvature="0" /><path
         d="m 56.82458,26.95142 c 0.26367,-0.22003 0.55389,-0.427 0.86365,-0.62115 0.3089,-0.1936 0.63434,-0.37531 0.9906,-0.52747 -1.29388,-0.96783 -2.73883,-1.71967 -4.26868,-2.22638 0.0018,0.34442 -0.007,0.69635 -0.02753,1.05249 -0.02002,0.34637 -0.04938,0.69354 -0.08466,1.03632 -0.13684,1.33051 -0.36426,2.57458 -0.51587,3.31812 0.34216,0.09607 0.68518,0.2113 1.02887,0.34216 0.39632,-0.65901 1.0547,-1.57374 2.01362,-2.37409 z"
         id="path4266"
         inkscape:connector-curvature="0" /><path
         d="m 56.61798,30.20477 c 0.59552,0.34149 1.17163,0.71252 1.71826,1.12366 0.3587,-0.1275 1.16821,-0.38403 2.26172,-0.56915 0.33887,-0.05731 0.70013,-0.10687 1.08722,-0.14301 0.3606,-0.03369 0.74103,-0.05249 1.13458,-0.05719 -0.25043,-0.43793 -0.51654,-0.87311 -0.81195,-1.30322 -0.47046,-0.68512 -1.00085,-1.31982 -1.57373,-1.90906 -0.38458,0.07935 -0.74194,0.19824 -1.07135,0.34863 -0.33044,0.15082 -0.63422,0.3299 -0.91058,0.52759 -0.86646,0.61969 -1.469,1.40497 -1.83417,1.98175 z"
         id="path4268"
         inkscape:connector-curvature="0" /><path
         d="m 34.64606,44.83929 c 0.284,-0.46478 0.5993,-0.95355 0.94385,-1.45844 0.14142,-0.20715 0.28796,-0.41656 0.43976,-0.62866 0.16705,-0.23334 0.34052,-0.46881 0.52039,-0.70673 2.3443,-3.1012 5.78583,-6.52753 10.53949,-8.72205 0.81769,-0.37744 1.67053,-0.72162 2.56689,-1.01788 -0.32916,-0.47943 -0.61029,-1.0022 -0.83618,-1.57465 -4.70355,0.83972 -9.07318,4.70306 -12.25012,8.33087 -0.3598,0.41083 -0.7052,0.81885 -1.03314,1.21887 -0.3512,0.42834 -0.68262,0.84729 -0.99432,1.25189 0.01459,1.07318 0.05597,2.13403 0.09796,3.16473 0.0019,0.04788 0.0035,0.09432 0.0054,0.14205 z"
         id="path4270"
         inkscape:connector-curvature="0" /><path
         d="m 61.64209,32.63159 c -0.54669,0.06104 -1.03351,0.15155 -1.44501,0.24554 0.26331,0.23779 0.5293,0.47504 0.78339,0.71417 0.56433,0.53113 1.11285,1.09753 1.64795,1.69135 0.4845,0.53766 0.95148,1.11029 1.41071,1.69763 0.42926,0.54901 0.84198,1.12738 1.24817,1.71851 -0.20044,-2.11224 -0.64899,-4.14758 -1.46582,-6.1076 -0.3844,-0.02985 -0.75659,-0.03662 -1.11713,-0.02802 -0.37037,0.0089 -0.72797,0.03107 -1.06226,0.06842 z"
         id="path4272"
         inkscape:connector-curvature="0" /><path
         d="m 48.60132,24.91498 c 1.17725,0.98267 2.1236,2.20166 2.33899,3.64392 0.2912,0.0068 0.58307,0.02173 0.87628,0.05109 0.18011,-0.88983 0.40662,-2.21918 0.52197,-3.50775 0.03088,-0.34509 0.05316,-0.68536 0.06476,-1.01489 0.01276,-0.36133 0.01172,-0.70618 -0.0065,-1.02527 -0.98529,-0.17786 -1.99084,-0.26038 -3.0033,-0.22809 -1.08746,0.03333 -2.16327,0.19904 -3.21143,0.47186 0.41266,0.22296 0.83557,0.46979 1.25525,0.74609 0.39985,0.26318 0.79157,0.55225 1.16395,0.86304 z"
         id="path4274"
         inkscape:connector-curvature="0" /><path
         d="m 36.93396,35.74976 c 0.83093,-0.83813 1.71637,-1.66083 2.651,-2.43433 -0.71094,-0.0033 -1.39209,0.03735 -2.02045,0.10254 -0.38837,0.04028 -0.7569,0.08936 -1.09851,0.14325 -0.41113,0.06482 -0.78076,0.13556 -1.10559,0.20471 -0.41895,1.46484 -0.64191,2.98132 -0.74493,4.50604 0.35657,-0.4176 0.73065,-0.84021 1.11877,-1.26385 0.38513,-0.42053 0.78565,-0.84076 1.19971,-1.25836 z"
         id="path4276"
         inkscape:connector-curvature="0" /><path
         d="m 38.5484,31.33771 c 1.09064,-0.0517 2.27557,-0.02155 3.48517,0.15875 0.88098,-0.58057 1.79309,-1.09741 2.73016,-1.53247 -1.60944,-0.31238 -3.33325,-0.4364 -4.87567,-0.46619 -0.4494,-0.0087 -0.88336,-0.01123 -1.29291,-0.0067 -0.4541,0.005 -0.8739,0.01685 -1.25903,0.03186 -0.11322,0.1651 -0.22876,0.32849 -0.33563,0.49847 -0.31824,0.50641 -0.59271,1.02765 -0.83679,1.55853 0.36804,-0.05798 0.76624,-0.10986 1.18341,-0.1532 0.38318,-0.03985 0.78552,-0.06945 1.20129,-0.0891 z"
         id="path4278"
         inkscape:connector-curvature="0" /><path
         d="m 41.90363,27.5824 c 2.09015,0.15125 4.31128,0.50348 6.1369,1.24036 0.0078,0.0031 0.01245,0.0099 0.02008,0.01324 0.29156,-0.06244 0.58447,-0.11688 0.87915,-0.15918 -0.28894,-1.22107 -1.60687,-2.3371 -3.0235,-3.20026 -0.38556,-0.23492 -0.77759,-0.45209 -1.15875,-0.64636 -0.43146,-0.21985 -0.84283,-0.40796 -1.21735,-0.5675 -1.67865,0.78906 -3.21973,1.8811 -4.52942,3.22198 0.45496,-6.1e-4 0.93427,0.0072 1.42889,0.02332 0.47718,0.0155 0.96454,0.03826 1.464,0.0744 z"
         id="path4280"
         inkscape:connector-curvature="0" /><path
         d="m 63.32996,39.39026 c -1.15417,-1.62354 -2.39062,-3.09125 -3.72058,-4.3429 -1.43555,-1.35107 -3.00684,-2.71533 -4.76904,-3.54248 -1.30145,-0.61078 -2.60437,-0.8938 -3.89288,-0.93079 0.61993,1.16412 1.59668,2.08502 2.72888,2.93341 0.55292,0.41431 1.13727,0.8147 1.73383,1.21954 0.78253,0.53119 1.57092,1.09161 2.31641,1.69135 0.1886,0.15173 0.38904,0.29193 0.56885,0.45123 0.69043,0.61182 1.32776,1.22034 1.93671,1.82745 1.22443,1.22058 2.27545,2.43341 3.17651,3.64368 0.02179,0.0293 0.04382,0.05853 0.06543,0.08783 0.31824,0.43115 0.61719,0.8623 0.89514,1.29315 0.3291,0.51019 0.63062,1.02063 0.90369,1.53119 0.06598,-0.87903 0.11371,-1.74677 0.13507,-2.60223 -0.3205,-0.57257 -0.6571,-1.11786 -0.99683,-1.65741 -0.34938,-0.5548 -0.71224,-1.08404 -1.08119,-1.60302 z"
         id="path4282"
         inkscape:connector-curvature="0" /></g></g></svg>