<?xml version="1.0" encoding="UTF-8" standalone="no"?>
<svg
   xmlns:dc="http://purl.org/dc/elements/1.1/"
   xmlns:cc="http://creativecommons.org/ns#"
   xmlns:rdf="http://www.w3.org/1999/02/22-rdf-syntax-ns#"
   xmlns:svg="http://www.w3.org/2000/svg"
   xmlns="http://www.w3.org/2000/svg"
   xmlns:sodipodi="http://sodipodi.sourceforge.net/DTD/sodipodi-0.dtd"
   xmlns:inkscape="http://www.inkscape.org/namespaces/inkscape"
   version="1.1"
   x="0px"
   y="0px"
   viewBox="0 0 92.599998 92.599998"
   enable-background="new 0 0 100 100"
   xml:space="preserve"
   id="svg6274"
   inkscape:version="0.91 r"
   sodipodi:docname="noun_409266_cc.svg"
   width="92.599998"
   height="92.599998"><metadata
     id="metadata6286"><rdf:RDF><cc:Work
         rdf:about=""><dc:format>image/svg+xml</dc:format><dc:type
           rdf:resource="http://purl.org/dc/dcmitype/StillImage" /><dc:title /></cc:Work></rdf:RDF></metadata><defs
     id="defs6284" /><sodipodi:namedview
     pagecolor="#ffffff"
     bordercolor="#666666"
     borderopacity="1"
     objecttolerance="10"
     gridtolerance="10"
     guidetolerance="10"
     inkscape:pageopacity="0"
     inkscape:pageshadow="2"
     inkscape:window-width="1920"
     inkscape:window-height="1052"
     id="namedview6282"
     showgrid="false"
     fit-margin-top="0"
     fit-margin-left="0"
     fit-margin-right="0"
     fit-margin-bottom="0"
     inkscape:zoom="5.3400704"
     inkscape:cx="4.012065"
     inkscape:cy="15.40219"
     inkscape:window-x="1366"
     inkscape:window-y="0"
     inkscape:window-maximized="1"
     inkscape:current-layer="svg6274" /><path
     d="M 92.6,46.3 82.8,33.6 77,33.6 81.1,29.5 79,13.6 63.1,11.5 59,15.6 59,9.8 46.3,0 33.6,9.8 l 0,5.8 -4.1,-4.1 -15.9,2.1 -2.1,15.9 4.1,4.1 -5.8,0 L 0,46.3 9.8,59 l 5.8,0 -4.1,4.1 2.1,15.9 15.9,2.1 4.1,-4.1 0,5.8 12.7,9.8 L 59,82.8 59,77 63.1,81.1 79,79 81.1,63.1 77,59 l 5.8,0 9.8,-12.7 z m -28.8,-32.7 13.4,1.7 1.7,13.4 -4.8,4.8 -9.4,0 -5.7,-5.7 0,-9.4 4.8,-4.8 z m -13.9,52.7 -7.2,0 -0.8,-6.4 4.4,-3.4 4.4,3.4 -0.8,6.4 z m -9.1,0.6 -5.2,5.2 0,-7.3 4.5,-3.4 0.7,5.5 z m 1.9,-40.6 7.2,0 0.8,6.4 -4.4,3.3 -4.4,-3.4 0.8,-6.3 z m 9.1,-0.6 5.2,-5.2 0,7.3 -4.5,3.4 -0.7,-5.5 z m 8.2,25 -3.4,-4.4 3.4,-4.4 6.4,0.8 0,7.2 -6.4,0.8 z m -6,-4.4 3.6,4.7 -5.9,0.8 -0.8,5.9 -4.6,-3.7 -4.7,3.6 -0.8,-5.9 -5.9,-0.8 3.6,-4.7 -3.6,-4.7 5.9,-0.8 0.8,-5.9 4.7,3.6 4.7,-3.6 0.8,5.9 5.9,0.8 -3.7,4.8 z m -21.3,-4.4 3.4,4.4 -3.4,4.4 -6.4,-0.8 0,-7.2 6.4,-0.8 z M 53.6,39 52.9,33.5 58,29.6 63.1,34.7 59.2,39.8 53.6,39 Z m -13.5,-7.8 -4.5,-3.4 0,-7.3 5.2,5.2 -0.7,5.5 z m -5.4,-1.6 5.1,3.9 -0.7,5.5 -5.5,0.7 -3.9,-5.1 5,-5 z m -6.9,6 3.4,4.5 -5.6,0.7 -5.2,-5.2 7.4,0 z m -2.1,16.2 5.6,0.7 -3.4,4.5 -7.3,0 5.1,-5.2 z m 7.8,1 5.5,0.7 0.7,5.5 -5.1,3.9 -5.1,-5.1 4,-5 z m 19,8.6 4.5,3.4 0,7.3 -5.2,-5.2 0.7,-5.5 z m 5.4,1.6 -5.1,-3.9 0.7,-5.5 5.5,-0.7 3.9,5.1 -5,5 z m 6.9,-6 -3.4,-4.5 5.6,-0.7 5.2,5.2 -7.4,0 z m 2.1,-16.2 -5.6,-0.7 3.4,-4.5 7.3,0 -5.1,5.2 z m -31.3,-30 10.7,-8.2 10.7,8.2 0,6.8 -6.7,6.7 -8,0 -6.7,-6.7 0,-6.8 z m -22,18 1.7,-13.4 13.4,-1.7 4.8,4.8 0,9.4 -5.7,5.7 -9.4,0 -4.8,-4.8 z M 10.8,57 2.6,46.3 l 8.2,-10.7 6.8,0 6.7,6.7 0,8 -6.7,6.7 -6.8,0 z m 18,22 -13.4,-1.7 -1.7,-13.4 4.8,-4.8 9.4,0 5.7,5.7 0,9.4 -4.8,4.8 z M 57,81.8 46.3,90 35.6,81.8 l 0,-6.8 6.7,-6.7 8,0 6.7,6.7 0,6.8 z m 22,-18 -1.7,13.4 -13.4,1.7 -4.8,-4.8 0,-9.4 5.7,-5.7 9.4,0 4.8,4.8 z m -4,-6.8 -6.7,-6.7 0,-8 6.7,-6.7 6.8,0 L 90,46.3 81.8,57 75,57 Z"
     id="path6276"
     inkscape:connector-curvature="0"
     style="fill:#d7ccc8;fill-opacity:1" /><text
     x="-3.7"
     y="111.3"
     font-size="5px"
     font-weight="bold"
     id="text6278"
     style="font-weight:bold;font-size:5px;font-family:'Helvetica Neue', Helvetica, Arial-Unicode, Arial, Sans-serif;fill:#000000" />
</svg>